<svg xmlns="http://www.w3.org/2000/svg" width="526.232" height="571.975" viewBox="0 0 526.232 571.975">
  <g id="Group_305" data-name="Group 305" transform="translate(0.339 0.5)">
    <g id="_000000ff" data-name="#000000ff" transform="translate(52.363 16.198)">
      <path id="Path_356" data-name="Path 356" d="M68.921,49.7c.972-14.067.29-29.025,6.93-41.871a419.981,419.981,0,0,0,11.606,60.9c.869,4.82,3.517,11.233-.993,15.06A120.58,120.58,0,0,1,65.28,97.159C67.163,81.395,67.576,65.507,68.921,49.7Z" transform="translate(17.367 -7.83)"/>
      <path id="Path_357" data-name="Path 357" d="M215.153,55.721c8.771-12.288,21.8-20.874,29.873-33.741a186.618,186.618,0,0,1,12.681,37.01c4.655,22.57,0,45.678-6.6,67.338-5.979,20.936-9.144,45.14,2.669,64.628-28.259-24.349-61.028-44.437-83.929-74.516a15.384,15.384,0,0,1-4.737-9.744c6.227-3.227,9.827-9.289,14.254-14.419C191.2,80.008,203.589,68.258,215.153,55.721Z" transform="translate(124.06 7.293)"/>
      <path id="Path_358" data-name="Path 358" d="M48.853,95.828c8.5-11.668,30.431-9.889,35.355,4.282,2.71,8.771,1.1,19.281-5.172,26.17-7.385,5.3-16.426,11.026-25.859,7.406-5.524-5.131-3.62-14.336-2.358-21,2.089-8.689,12-10.137,19.529-10.447-1.986-5.855-8.627-4.013-13.385-3.993-9.392,1.593-13.84,11.9-15.619,20.067C41.178,110.248,44.2,102.324,48.853,95.828Z" transform="translate(-8.223 78.009)"/>
      <path id="Path_359" data-name="Path 359" d="M125.621,106.833c14.419-9.682,31.859-1.738,44.975,6.289,4.2,4.9,10.054,7.9,14.709,12.288,1.965,4.862-4.241,8.337-6.351,12.226-10.716,9.061-25.363,13.24-39.265,12.888-4.448-8.565-8.337-18.557-5.006-28.176,2.71-5.565,9.144-5.586,14.44-6.413-.765-7.53-10.882-6.268-16.55-6.082-9.868-.165-15.454,10.158-16.219,18.8-.31,6.123-1.676,14.605,5.3,17.564-1.738.186-3.848.414-4.862-1.427-4.158-3.331-10.1-5.006-12.557-9.992C106.568,122.762,117.015,114.652,125.621,106.833Z" transform="translate(58.994 93.215)"/>
      <path id="Path_360" data-name="Path 360" d="M48.231,140.534c6.5-6.082,12-13.116,19.384-18.184-2.958,9.827-15.578,12.206-19.4,21.66,19.881-2.214,42.037-1.138,58.318,11.854,7.572,7.385,9.558,22.632-.455,28.88-14.936,11.3-29.521,25.218-48.264,29.438-16.157.331-24.1-16.26-29.5-28.962,4.282-3.765,10.406-2.814,15.6-4.055-3.7-4.22-9.578-5.358-13.84-8.9-1.469-2.131-3.082-4.158-4.737-6.123C29.219,154.85,38.715,147.051,48.231,140.534Z" transform="translate(-25.33 114.563)"/>
      <path id="Path_361" data-name="Path 361" d="M25.94,176.3c4.179.455,8.3,1.676,12.516,1.593,5.668-.641,10.923-3.434,16.653-3.6,16.447,1.614,31.073,9.682,46.4,15.123,9.951,3.682,19.239,9.806,30.142,10.261,20.77,2.814,40.63-6.372,61.194-6.62-1.572,2.627-3.517,5.089-6.372,6.372-16.964,8.668-36.141,11.006-54.843,12.971a57.121,57.121,0,0,1-31.962-6.31c-18.536-6.517-35.789-16.612-55.111-20.915C37.856,183.62,30.346,182.151,25.94,176.3Z" transform="translate(-24.678 170.074)"/>
      <path id="Path_362" data-name="Path 362" d="M25.56,223.543c7.344,6.91,12.557,15.681,18.2,23.977,2.958.621,4.427-.91,4.386-4.572,5.979,6.992,12.185,13.861,19.736,19.239,7.179,5.4,14.5,14.254,24.473,12.206.5-.641,1.448-1.924,1.924-2.565,11.088,6.475,23.439,11.5,36.182,13.406a14.532,14.532,0,0,0-5.668-9.123c28.528,2.834,57.139,6.289,85.853,4.282q1.738-2.669-.869-4.965c21.246-3.869,42.533-7.406,63.7-11.626-4.468-6.579-14.171-3.5-20.853-4.882.021-.434.041-1.3.062-1.758,11.109-1.883,20.356-8.709,30.617-12.888,15.185-6.434,29.252-15.474,45.119-20.232,2.793-.993,5.792-.869,8.709-.89-1.138,4.241-6.31,3.227-9.5,4.8-18.267,7.468-33.638,20.377-51.346,28.942,2.917,5.234,11.9,2.42,13.24,8.627-19.074,2.5-37.817,7.075-56.911,9.392,1.407,2.834,4.386,3.91,7.1,5.151-19.757,7.634-41.313,8.3-62.187,10.1-11.937.559-23.687-2.255-35.52-3.475-.062,1.593-.186,4.82-.248,6.434-15.267-1.427-28.4-10.9-43.526-12.64q1.552,2.607,3.165,5.213c-.91.559-1.841,1.117-2.772,1.7-9.061-3.331-16.881-9.144-24.122-15.412-8.461-5.855-14.771-14.667-24.535-18.577-.827,3.062-1.262,6.434-3.517,8.854C36.669,251.182,30.546,237.3,25.56,223.543Z" transform="translate(-25.084 222.293)"/>
    </g>
    <g id="_d8d8d8ff" data-name="#d8d8d8ff" transform="translate(0.035)">
      <path id="Path_363" data-name="Path 363" d="M144.961,0h7.779c10.7,9.847,15.454,24.142,19.963,37.548,7.51,18.681,27.08,27.763,38.086,43.878,11.068.89,22.011,2.876,32.955,4.8,21.184,3.7,42.864.745,64.069,4.241,8.916,1.1,18.226,3.31,27.059.786,23.232-22.529,48.595-42.8,72.1-65.062,7.158-4.82,14.026-12.992,23.5-11.668,5.234.724,7.965,5.751,10.944,9.537,18.081,29.831,24.68,65.724,21.37,100.252-3,18.929-13.343,36.038-13.012,55.608,3.951.745,7.923,1.469,11.875,2.172l-1.427,8.5c1.883,2.9,3.744,6.02,2.4,9.578a39.877,39.877,0,0,1,7.137,10.2c-1.758,4.551.352,9.123-.062,13.757,2.255,1.448,4.448,2.834,6.785,4.262-1.386.765-4.117,2.276-5.482,3.041,3.972,5.855,7.592,12,9.558,18.846-2.131,1.138-4.262,2.276-6.372,3.434,1.055,4.386,2.172,8.978.476,13.364,1.531,7.013,5.875,12.764,9.1,19.012,8.4,20.4,6.186,43.423,14.419,63.883,8.73,20.625,17.853,41.354,22.218,63.428,3,19.053.186,38.541-6.765,56.435-6.785,16.281-9.351,35.624-1.262,51.926,3.082,12.805,12.723,23.356,12.95,36.906.083,4.1.434,8.358-.972,12.309H20.712c-4.241-4.593-7.489-10.261-8.172-16.55a352.4,352.4,0,0,1,2.027-56.456c-1.676-1.738-3.351-3.5-5.006-5.255,4.551-.29,9.1-.579,13.633-1.014-2.338-3.227-4.841-6.33-7.344-9.413q6.579-1.645,13.157-3.455c-1.427-3.082-3.062-6.061-4.22-9.247,1.345-3.455,5.565-5.089,7.054-8.585,3.041-6.785-.621-13.964-2.938-20.356-6.682-15.805-14.212-31.238-20.129-47.333C4.72,382.822,6.4,371.361,4.224,360.5c-2.234-11.006-5.544-22.177-3.6-33.514,2.069-14.378,1.634-29.252,6.041-43.216,6.1-15.267,12.557-30.39,18.991-45.533,4.655-14.192,6.123-29.169,7.9-43.92,3.413-23.853,18.867-45.7,40.61-56.27,14.254-7.841,29.976-12.33,44.6-19.343,5.42-3.082,6.992-9.744,8.854-15.247,7.22-26.211,1.986-53.787,5.979-80.433C134.658,14.336,137.7,5.441,144.961,0m-6.31,58.07c-1.345,15.805-1.758,31.693-3.641,47.457a120.58,120.58,0,0,0,21.184-13.364c4.51-3.827,1.862-10.24.993-15.06a419.981,419.981,0,0,1-11.606-60.9c-6.641,12.847-5.958,27.8-6.93,41.871M391.576,79.212c-11.564,12.537-23.956,24.287-35.789,36.555-4.427,5.13-8.027,11.192-14.254,14.419a15.384,15.384,0,0,0,4.737,9.744c22.9,30.08,55.67,50.167,83.929,74.516-11.813-19.488-8.647-43.692-2.669-64.628,6.6-21.66,11.254-44.768,6.6-67.338a186.619,186.619,0,0,0-12.681-37.01c-8.068,12.868-21.1,21.453-29.873,33.741M92.994,190.035c-4.655,6.5-7.675,14.419-7.51,22.487,1.779-8.172,6.227-18.474,15.619-20.067,4.758-.021,11.4-1.862,13.385,3.993-7.53.31-17.44,1.758-19.529,10.447-1.262,6.661-3.165,15.867,2.358,21,9.433,3.62,18.474-2.11,25.859-7.406,6.268-6.889,7.882-17.4,5.172-26.17-4.924-14.171-26.852-15.95-35.355-4.282m143.985,26.211c-8.606,7.82-19.053,15.929-21.391,27.969,2.462,4.986,8.4,6.661,12.557,9.992,1.014,1.841,3.124,1.614,4.862,1.427-6.972-2.958-5.606-11.44-5.3-17.564.765-8.647,6.351-18.97,16.219-18.8,5.668-.186,15.785-1.448,16.55,6.082-5.3.827-11.73.848-14.44,6.413-3.331,9.62.559,19.612,5.006,28.176,13.9.352,28.549-3.827,39.265-12.888,2.11-3.889,8.316-7.365,6.351-12.226-4.655-4.386-10.509-7.385-14.709-12.288-13.116-8.027-30.555-15.971-44.975-6.289M75.265,271.3c-9.516,6.517-19.012,14.316-22.9,25.611,1.655,1.965,3.269,3.993,4.737,6.123,4.262,3.538,10.137,4.675,13.84,8.9-5.193,1.241-11.316.29-15.6,4.055,5.4,12.7,13.343,29.293,29.5,28.962,18.743-4.22,33.328-18.143,48.264-29.438,10.013-6.248,8.027-21.494.455-28.88-16.281-12.992-38.437-14.068-58.318-11.854,3.827-9.454,16.447-11.833,19.4-21.66-7.385,5.068-12.888,12.1-19.384,18.184M53.625,362.569c4.406,5.855,11.916,7.323,18.619,8.875,19.322,4.3,36.575,14.4,55.111,20.915a57.121,57.121,0,0,0,31.962,6.31c18.7-1.965,37.879-4.3,54.843-12.971,2.855-1.283,4.8-3.744,6.372-6.372-20.563.248-40.423,9.434-61.194,6.62-10.9-.455-20.191-6.579-30.142-10.261-15.329-5.441-29.955-13.509-46.4-15.123-5.73.165-10.985,2.958-16.653,3.6-4.22.083-8.337-1.138-12.516-1.593m-.786,99.465c4.986,13.757,11.109,27.638,20.894,38.706,2.255-2.42,2.689-5.793,3.517-8.854,9.764,3.91,16.074,12.723,24.535,18.577,7.241,6.268,15.06,12.081,24.122,15.412.931-.579,1.862-1.138,2.772-1.7q-1.614-2.607-3.165-5.213c15.123,1.738,28.259,11.213,43.526,12.64.062-1.614.186-4.841.248-6.434,11.833,1.221,23.584,4.034,35.52,3.475,20.874-1.8,42.43-2.462,62.187-10.1-2.71-1.241-5.689-2.317-7.1-5.151,19.095-2.317,37.837-6.889,56.911-9.392-1.345-6.206-10.323-3.393-13.24-8.627,17.708-8.565,33.079-21.474,51.346-28.942,3.186-1.572,8.358-.559,9.5-4.8-2.917.021-5.917-.1-8.709.89-15.867,4.758-29.935,13.8-45.119,20.232-10.261,4.179-19.508,11.006-30.617,12.888-.021.455-.041,1.324-.062,1.758,6.682,1.386,16.384-1.7,20.853,4.882-21.163,4.22-42.451,7.758-63.7,11.626q2.607,2.3.869,4.965c-28.714,2.007-57.325-1.448-85.853-4.282a14.532,14.532,0,0,1,5.668,9.123c-12.743-1.9-25.094-6.93-36.182-13.406-.476.641-1.427,1.924-1.924,2.565-9.971,2.048-17.295-6.806-24.473-12.206-7.551-5.379-13.757-12.247-19.736-19.239.041,3.662-1.427,5.193-4.386,4.572C65.4,477.715,60.183,468.944,52.839,462.034Z" transform="translate(-0.035)" fill="none" stroke="#000" stroke-width="1"/>
    </g>
  </g>
</svg>
