<svg xmlns="http://www.w3.org/2000/svg" width="40.756" height="39.776" viewBox="0 0 40.756 39.776">
  <path id="Path_342" data-name="Path 342" d="M45.118,8.008a7.138,7.138,0,0,0-9.988-.1L16.693,26.34a1.549,1.549,0,0,0-.44,1.224v.846a7.933,7.933,0,0,0-4.595,2.26C8.435,33.88,9.536,42.828,6.487,45.22c-.208.165.208.473.473.473,2.174,0,12.484-.274,15.973-3.782a7.932,7.932,0,0,0,2.312-5.072h.473a1.47,1.47,0,0,0,1.054-.435L45.207,17.968A7.138,7.138,0,0,0,45.118,8.008Zm-3.309,6.713-.217.227-17.2,17.2-1.205-1.21c-.085-.09-.161-.184-.251-.274s-.184-.165-.279-.251l-1.678-1.683L38.169,11.539l.232-.222a2.411,2.411,0,0,1,3.408,3.4Z" transform="translate(-6.431 -5.917)"/>
</svg>
