<svg id="Group_293" data-name="Group 293" xmlns="http://www.w3.org/2000/svg" width="44.172" height="49.694" viewBox="0 0 44.172 49.694">
  <path id="Path_346" data-name="Path 346" d="M44.332,10.2H33.289a9.2,9.2,0,0,0-18.405,0H3.841a1.841,1.841,0,1,0,0,3.681H5.681V38.7A12.006,12.006,0,0,0,17.674,50.694H30.5A12.006,12.006,0,0,0,42.491,38.7V13.884h1.841a1.841,1.841,0,1,0,0-3.681ZM24.086,4.681A5.521,5.521,0,0,1,29.608,10.2H18.565A5.521,5.521,0,0,1,24.086,4.681ZM38.81,38.7A8.321,8.321,0,0,1,30.5,47.013H17.674A8.321,8.321,0,0,1,9.362,38.7V13.884H38.81Z" transform="translate(-2 -1)"/>
  <path id="Path_347" data-name="Path 347" d="M11.841,28.565a1.841,1.841,0,0,0,1.841-1.841V13.841a1.841,1.841,0,0,0-3.681,0V26.724A1.841,1.841,0,0,0,11.841,28.565Z" transform="translate(4.724 8.246)"/>
  <path id="Path_348" data-name="Path 348" d="M17.841,28.565a1.841,1.841,0,0,0,1.841-1.841V13.841a1.841,1.841,0,1,0-3.681,0V26.724A1.841,1.841,0,0,0,17.841,28.565Z" transform="translate(9.767 8.246)"/>
</svg>
