<svg xmlns="http://www.w3.org/2000/svg" width="39.447" height="39.448" viewBox="0 0 39.447 39.448">
  <path id="Path_344" data-name="Path 344" d="M4.135,31.733,12.6,40.2a4.364,4.364,0,0,0,6.172,0h0l3.2-3.2,1.068,1.069a1.456,1.456,0,0,0,2.057,0L41.88,21.288a1.456,1.456,0,0,0,0-2.057h0L25.1,2.455a1.454,1.454,0,0,0-2.056,0h0L6.273,19.231a1.456,1.456,0,0,0,0,2.057l1.068,1.068-3.205,3.2A4.37,4.37,0,0,0,4.135,31.733ZM24.075,5.543,38.794,20.259,24.075,34.976,9.359,20.259ZM6.193,27.617l3.2-3.2L19.922,34.937l-3.205,3.2a1.486,1.486,0,0,1-2.057,0L6.193,29.676A1.458,1.458,0,0,1,6.193,27.617Z" transform="translate(-2.858 -2.029)"/>
</svg>
