<svg xmlns="http://www.w3.org/2000/svg" width="44.569" height="37.308" viewBox="0 0 44.569 37.308">
  <path id="Path_345" data-name="Path 345" d="M36.308,3H7.262A7.415,7.415,0,0,0,0,10.5v21.18a7.445,7.445,0,0,0,7.262,7.625H36.308a7.415,7.415,0,0,0,7.262-7.5V10.5A7.415,7.415,0,0,0,36.308,3Zm4.841,28.8a4.989,4.989,0,0,1-4.841,5.083H7.262A4.989,4.989,0,0,1,2.421,31.8V10.5A4.989,4.989,0,0,1,7.262,5.421H36.308A4.989,4.989,0,0,1,41.149,10.5Zm-9.2-8.714a2.924,2.924,0,0,0-4.236,0l-.847.847-5.325-5.325a3.948,3.948,0,0,0-5.446,0L6.414,28.295a1.17,1.17,0,0,0,0,1.694,1.307,1.307,0,0,0,.847.363,1.307,1.307,0,0,0,.847-.363l9.682-9.682a1.47,1.47,0,0,1,1.936,0l5.325,5.325-2.542,2.542a1.2,1.2,0,0,0,1.694,1.694l3.389-3.389,1.694-1.694a.585.585,0,0,1,.847,0l5.2,5.2a1.17,1.17,0,0,0,1.694,0,1.17,1.17,0,0,0,0-1.694Zm.121-4.357A4.236,4.236,0,1,0,27.836,14.5,4.288,4.288,0,0,0,32.072,18.733Zm0-6.051A1.815,1.815,0,1,1,30.257,14.5,1.861,1.861,0,0,1,32.072,12.682Z" transform="translate(0.5 -2.5)" stroke="#000" stroke-width="1"/>
</svg>
