<svg id="Group_292" data-name="Group 292" xmlns="http://www.w3.org/2000/svg" width="29.057" height="51.975" viewBox="0 0 29.057 51.975">
  <path id="Path_336" data-name="Path 336" d="M49.486,23.639H48.7l-1.416-7.45a1.236,1.236,0,0,0-1.236-1.008H44.12v-3.92A3.332,3.332,0,0,0,40.794,7.93H36.466a3.338,3.338,0,0,0-3.326,3.332v3.92h-2A1.236,1.236,0,0,0,29.9,16.19l-1.372,7.45h-.791A1.237,1.237,0,0,0,26.5,24.876V56.2a3.709,3.709,0,0,0,3.709,3.709H46.964A3.709,3.709,0,0,0,50.673,56.2V24.876A1.237,1.237,0,0,0,49.486,23.639ZM35.6,11.275a.853.853,0,0,1,.847-.859h4.334a.853.853,0,0,1,.866.841v.3h-2.43a1.236,1.236,0,1,0,0,2.473h2.43v1.15H35.6Zm-3.425,6.38H45.047l1.138,5.985H31.044ZM48.25,56.2a1.236,1.236,0,0,1-1.236,1.236H30.234A1.236,1.236,0,0,1,29,56.2V26.112H48.25Z" transform="translate(-26.5 -7.93)"/>
  <path id="Path_337" data-name="Path 337" d="M59.006,15.293h1.811a1.236,1.236,0,0,0,0-2.473H59.006a1.236,1.236,0,0,0,0,2.473Z" transform="translate(-38.438 -9.797)"/>
  <path id="Path_338" data-name="Path 338" d="M69.618,12.82H67.806a1.236,1.236,0,0,0,0,2.473h1.811a1.236,1.236,0,0,0,0-2.473Z" transform="translate(-41.797 -9.797)"/>
  <path id="Path_339" data-name="Path 339" d="M67.806,10.4h1.811a1.236,1.236,0,0,0,0-2.473H67.806a1.236,1.236,0,0,0,0,2.473Z" transform="translate(-41.797 -7.93)"/>
  <path id="Path_340" data-name="Path 340" d="M69.618,17.7H67.806a1.236,1.236,0,0,0,0,2.473h1.811a1.236,1.236,0,0,0,0-2.473Z" transform="translate(-41.797 -11.66)"/>
  <path id="Path_341" data-name="Path 341" d="M42.873,51a5.873,5.873,0,1,0,5.873,5.873h0A5.88,5.88,0,0,0,42.873,51Zm0,9.274a3.4,3.4,0,1,1,3.4-3.4A3.4,3.4,0,0,1,42.873,60.274Z" transform="translate(-30.509 -24.373)"/>
</svg>
