<svg xmlns="http://www.w3.org/2000/svg" width="65.687" height="13.137" viewBox="0 0 65.687 13.137">
  <g id="Group_304" data-name="Group 304" transform="translate(0 -335.371)">
    <path id="Path_353" data-name="Path 353" d="M65.687,338H60.432v2.627H57.8v2.628H55.177v2.627H52.549v2.627H36.785v-2.627H34.157v-2.627H31.53v-2.628H26.275v2.628H23.647v2.627H5.255v-2.627H2.627v-2.628H0v-5.255H65.687Z" transform="translate(0 0)"/>
    <g id="Group_303" data-name="Group 303" transform="translate(13.137 337.998)">
      <path id="Path_354" data-name="Path 354" d="M541.653,368.4v2.628h-2.627V368.4Zm-2.627,2.628v2.628H536.4v-2.628Zm-2.627,0h-2.627V368.4H536.4Zm-2.627,0v2.628h-2.628v-2.628Zm-2.628,2.628v2.627h-2.627v-2.627Zm2.628,0H536.4v2.627h-2.627Z" transform="translate(-499.614 -368.403)" fill="#fff"/>
      <path id="Path_355" data-name="Path 355" d="M175.671,368.4h-2.627v2.628h-2.627V368.4h-2.627v2.628h-2.628v2.628h2.628v-2.628h2.627v2.628h2.627v-2.628h2.627Z" transform="translate(-165.161 -368.403)" fill="#fff"/>
    </g>
  </g>
</svg>
